<svg viewBox="0 0 507 507" fill="none" xmlns="http://www.w3.org/2000/svg"><rect x="0" y="0" height="507" width="507" fill="black" /><path d="M32.9648 181.082V186.742L38.168 184.949L39.75 189.098L34.5469 191.277L37.8164 195.918L34.3008 198.52L30.75 193.844L27.2695 198.52L23.5781 195.918L26.8828 191.102L21.6445 189.098L23.1562 184.949L28.5352 186.742V181.082H32.9648ZM71.3203 181.082V238H56.5195V181.082H71.3203ZM110.309 181.082V238H97.3359L89.6367 212.125V238H77.2617V181.082H89.6367L97.9336 206.711V181.082H110.309ZM147.645 198.309H133.898V194.09C133.898 192.121 133.723 190.867 133.371 190.328C133.02 189.789 132.434 189.52 131.613 189.52C130.723 189.52 130.043 189.883 129.574 190.609C129.129 191.336 128.906 192.438 128.906 193.914C128.906 195.812 129.164 197.242 129.68 198.203C130.172 199.164 131.566 200.324 133.863 201.684C140.449 205.598 144.598 208.809 146.309 211.316C148.02 213.824 148.875 217.867 148.875 223.445C148.875 227.5 148.395 230.488 147.434 232.41C146.496 234.332 144.668 235.949 141.949 237.262C139.23 238.551 136.066 239.195 132.457 239.195C128.496 239.195 125.109 238.445 122.297 236.945C119.508 235.445 117.68 233.535 116.812 231.215C115.945 228.895 115.512 225.602 115.512 221.336V217.609H129.258V224.535C129.258 226.668 129.445 228.039 129.82 228.648C130.219 229.258 130.91 229.562 131.895 229.562C132.879 229.562 133.605 229.176 134.074 228.402C134.566 227.629 134.812 226.48 134.812 224.957C134.812 221.605 134.355 219.414 133.441 218.383C132.504 217.352 130.195 215.629 126.516 213.215C122.836 210.777 120.398 209.008 119.203 207.906C118.008 206.805 117.012 205.281 116.215 203.336C115.441 201.391 115.055 198.906 115.055 195.883C115.055 191.523 115.605 188.336 116.707 186.32C117.832 184.305 119.637 182.734 122.121 181.609C124.605 180.461 127.605 179.887 131.121 179.887C134.965 179.887 138.234 180.508 140.93 181.75C143.648 182.992 145.441 184.562 146.309 186.461C147.199 188.336 147.645 191.535 147.645 196.059V198.309ZM153.551 181.082H178.23V192.473H168.352V203.266H177.598V214.094H168.352V226.609H179.215V238H153.551V181.082ZM183.504 181.082H193.98C200.965 181.082 205.688 181.352 208.148 181.891C210.633 182.43 212.648 183.812 214.195 186.039C215.766 188.242 216.551 191.77 216.551 196.621C216.551 201.051 216 204.027 214.898 205.551C213.797 207.074 211.629 207.988 208.395 208.293C211.324 209.02 213.293 209.992 214.301 211.211C215.309 212.43 215.93 213.555 216.164 214.586C216.422 215.594 216.551 218.395 216.551 222.988V238H202.805V219.086C202.805 216.039 202.559 214.152 202.066 213.426C201.598 212.699 200.344 212.336 198.305 212.336V238H183.504V181.082ZM198.305 190.82V203.477C199.969 203.477 201.129 203.254 201.785 202.809C202.465 202.34 202.805 200.852 202.805 198.344V195.215C202.805 193.41 202.477 192.227 201.82 191.664C201.188 191.102 200.016 190.82 198.305 190.82ZM252.129 181.082V192.473H243.34V238H228.539V192.473H219.785V181.082H252.129ZM268.23 181.082H283.137C287.168 181.082 290.262 181.398 292.418 182.031C294.598 182.664 296.227 183.578 297.305 184.773C298.406 185.969 299.145 187.422 299.52 189.133C299.918 190.82 300.117 193.445 300.117 197.008V201.965C300.117 205.598 299.742 208.246 298.992 209.91C298.242 211.574 296.859 212.852 294.844 213.742C292.852 214.633 290.238 215.078 287.004 215.078H283.031V238H268.23V181.082ZM283.031 190.82V205.305C283.453 205.328 283.816 205.34 284.121 205.34C285.48 205.34 286.418 205.012 286.934 204.355C287.473 203.676 287.742 202.281 287.742 200.172V195.496C287.742 193.551 287.438 192.285 286.828 191.699C286.219 191.113 284.953 190.82 283.031 190.82ZM304.371 181.082H314.848C321.832 181.082 326.555 181.352 329.016 181.891C331.5 182.43 333.516 183.812 335.062 186.039C336.633 188.242 337.418 191.77 337.418 196.621C337.418 201.051 336.867 204.027 335.766 205.551C334.664 207.074 332.496 207.988 329.262 208.293C332.191 209.02 334.16 209.992 335.168 211.211C336.176 212.43 336.797 213.555 337.031 214.586C337.289 215.594 337.418 218.395 337.418 222.988V238H323.672V219.086C323.672 216.039 323.426 214.152 322.934 213.426C322.465 212.699 321.211 212.336 319.172 212.336V238H304.371V181.082ZM319.172 190.82V203.477C320.836 203.477 321.996 203.254 322.652 202.809C323.332 202.34 323.672 200.852 323.672 198.344V195.215C323.672 193.41 323.344 192.227 322.688 191.664C322.055 191.102 320.883 190.82 319.172 190.82ZM377.004 214.41C377.004 220.129 376.863 224.184 376.582 226.574C376.324 228.941 375.48 231.109 374.051 233.078C372.645 235.047 370.734 236.559 368.32 237.613C365.906 238.668 363.094 239.195 359.883 239.195C356.836 239.195 354.094 238.703 351.656 237.719C349.242 236.711 347.297 235.211 345.82 233.219C344.344 231.227 343.465 229.059 343.184 226.715C342.902 224.371 342.762 220.27 342.762 214.41V204.672C342.762 198.953 342.891 194.91 343.148 192.543C343.43 190.152 344.273 187.973 345.68 186.004C347.109 184.035 349.031 182.523 351.445 181.469C353.859 180.414 356.672 179.887 359.883 179.887C362.93 179.887 365.66 180.391 368.074 181.398C370.512 182.383 372.469 183.871 373.945 185.863C375.422 187.855 376.301 190.023 376.582 192.367C376.863 194.711 377.004 198.812 377.004 204.672V214.41ZM362.203 195.707C362.203 193.059 362.051 191.371 361.746 190.645C361.465 189.895 360.867 189.52 359.953 189.52C359.18 189.52 358.582 189.824 358.16 190.434C357.762 191.02 357.562 192.777 357.562 195.707V222.285C357.562 225.59 357.691 227.629 357.949 228.402C358.23 229.176 358.863 229.562 359.848 229.562C360.855 229.562 361.5 229.117 361.781 228.227C362.062 227.336 362.203 225.215 362.203 221.863V195.707ZM382.559 181.082H407.625V192.473H397.359V203.266H406.5V214.094H397.359V238H382.559V181.082ZM426.047 181.082V238H411.246V181.082H426.047ZM446.789 181.082V226.609H455.789V238H431.988V181.082H446.789ZM459.41 181.082H484.09V192.473H474.211V203.266H483.457V214.094H474.211V226.609H485.074V238H459.41V181.082ZM57.9258 269.082H72.832C76.8633 269.082 79.957 269.398 82.1133 270.031C84.293 270.664 85.9219 271.578 87 272.773C88.1016 273.969 88.8398 275.422 89.2148 277.133C89.6133 278.82 89.8125 281.445 89.8125 285.008V289.965C89.8125 293.598 89.4375 296.246 88.6875 297.91C87.9375 299.574 86.5547 300.852 84.5391 301.742C82.5469 302.633 79.9336 303.078 76.6992 303.078H72.7266V326H57.9258V269.082ZM72.7266 278.82V293.305C73.1484 293.328 73.5117 293.34 73.8164 293.34C75.1758 293.34 76.1133 293.012 76.6289 292.355C77.168 291.676 77.4375 290.281 77.4375 288.172V283.496C77.4375 281.551 77.1328 280.285 76.5234 279.699C75.9141 279.113 74.6484 278.82 72.7266 278.82ZM108.867 269.082V326H94.0664V269.082H108.867ZM149.367 293.902H134.566V283.988C134.566 281.105 134.402 279.312 134.074 278.609C133.77 277.883 133.078 277.52 132 277.52C130.781 277.52 130.008 277.953 129.68 278.82C129.352 279.688 129.188 281.562 129.188 284.445V310.883C129.188 313.648 129.352 315.453 129.68 316.297C130.008 317.141 130.746 317.562 131.895 317.562C132.996 317.562 133.711 317.141 134.039 316.297C134.391 315.453 134.566 313.473 134.566 310.355V303.219H149.367V305.434C149.367 311.316 148.945 315.488 148.102 317.949C147.281 320.41 145.441 322.566 142.582 324.418C139.746 326.27 136.242 327.195 132.07 327.195C127.734 327.195 124.16 326.41 121.348 324.84C118.535 323.27 116.672 321.102 115.758 318.336C114.844 315.547 114.387 311.363 114.387 305.785V289.156C114.387 285.055 114.527 281.984 114.809 279.945C115.09 277.883 115.922 275.902 117.305 274.004C118.711 272.105 120.645 270.617 123.105 269.539C125.59 268.438 128.438 267.887 131.648 267.887C136.008 267.887 139.605 268.73 142.441 270.418C145.277 272.105 147.141 274.215 148.031 276.746C148.922 279.254 149.367 283.168 149.367 288.488V293.902ZM184.488 269.082V280.473H175.699V326H160.898V280.473H152.145V269.082H184.488ZM221.508 269.082V307.121C221.508 311.434 221.367 314.469 221.086 316.227C220.805 317.961 219.973 319.754 218.59 321.605C217.207 323.434 215.379 324.828 213.105 325.789C210.855 326.727 208.195 327.195 205.125 327.195C201.727 327.195 198.727 326.633 196.125 325.508C193.523 324.383 191.578 322.918 190.289 321.113C189 319.309 188.238 317.41 188.004 315.418C187.77 313.402 187.652 309.184 187.652 302.762V269.082H202.453V311.762C202.453 314.246 202.582 315.84 202.84 316.543C203.121 317.223 203.672 317.562 204.492 317.562C205.43 317.562 206.027 317.188 206.285 316.438C206.566 315.664 206.707 313.859 206.707 311.023V269.082H221.508ZM227.238 269.082H237.715C244.699 269.082 249.422 269.352 251.883 269.891C254.367 270.43 256.383 271.812 257.93 274.039C259.5 276.242 260.285 279.77 260.285 284.621C260.285 289.051 259.734 292.027 258.633 293.551C257.531 295.074 255.363 295.988 252.129 296.293C255.059 297.02 257.027 297.992 258.035 299.211C259.043 300.43 259.664 301.555 259.898 302.586C260.156 303.594 260.285 306.395 260.285 310.988V326H246.539V307.086C246.539 304.039 246.293 302.152 245.801 301.426C245.332 300.699 244.078 300.336 242.039 300.336V326H227.238V269.082ZM242.039 278.82V291.477C243.703 291.477 244.863 291.254 245.52 290.809C246.199 290.34 246.539 288.852 246.539 286.344V283.215C246.539 281.41 246.211 280.227 245.555 279.664C244.922 279.102 243.75 278.82 242.039 278.82ZM266.051 269.082H290.73V280.473H280.852V291.266H290.098V302.094H280.852V314.609H291.715V326H266.051V269.082ZM342.762 269.082V326H327.961V302.094H323.531V326H308.73V269.082H323.531V289.438H327.961V269.082H342.762ZM348.738 269.082H373.418V280.473H363.539V291.266H372.785V302.094H363.539V314.609H374.402V326H348.738V269.082ZM378.691 269.082H389.168C396.152 269.082 400.875 269.352 403.336 269.891C405.82 270.43 407.836 271.812 409.383 274.039C410.953 276.242 411.738 279.77 411.738 284.621C411.738 289.051 411.188 292.027 410.086 293.551C408.984 295.074 406.816 295.988 403.582 296.293C406.512 297.02 408.48 297.992 409.488 299.211C410.496 300.43 411.117 301.555 411.352 302.586C411.609 303.594 411.738 306.395 411.738 310.988V326H397.992V307.086C397.992 304.039 397.746 302.152 397.254 301.426C396.785 300.699 395.531 300.336 393.492 300.336V326H378.691V269.082ZM393.492 278.82V291.477C395.156 291.477 396.316 291.254 396.973 290.809C397.652 290.34 397.992 288.852 397.992 286.344V283.215C397.992 281.41 397.664 280.227 397.008 279.664C396.375 279.102 395.203 278.82 393.492 278.82ZM417.504 269.082H442.184V280.473H432.305V291.266H441.551V302.094H432.305V314.609H443.168V326H417.504V269.082ZM469.605 269.082V274.742L474.809 272.949L476.391 277.098L471.188 279.277L474.457 283.918L470.941 286.52L467.391 281.844L463.91 286.52L460.219 283.918L463.523 279.102L458.285 277.098L459.797 272.949L465.176 274.742V269.082H469.605Z" fill="white" /></svg> 
